<svg width="34" height="48" viewBox="0 0 34 48" xmlns="http://www.w3.org/2000/svg"><title>Group 28</title><g fill="none" fill-rule="evenodd"><g fill-rule="nonzero"><path d="M23 0v3.804A20.716 20.716 0 0 0 9.886 9.671c-3.854 3.788-6.02 8.925-6.02 14.281s2.166 10.493 6.02 14.28C13.405 41.69 18.068 43.766 23 44.1V48c-5.954-.351-11.592-2.831-15.834-6.999C2.578 36.491 0 30.377 0 24c0-6.377 2.578-12.492 7.166-17.001C11.408 2.83 17.046.35 23 0Z" fill="#53CA4A"/><g fill="#BAE249"><path d="M21.522 29.4c.386 0 .756.151 1.027.421.262.26.41.61.415.976v8.571c.001.425-.189.828-.52 1.101-.33.273-.768.387-1.193.313a17.69 17.69 0 0 1-6.585-2.68l-.095-.063a1.4 1.4 0 0 1-.233-2.161l6.16-6.053a1.45 1.45 0 0 1 1.024-.424ZM22.443 7.451c.322.266.51.653.52 1.064v8.592a1.4 1.4 0 0 1-.415.976c-.27.27-.64.42-1.027.42-.372 0-.73-.143-.997-.398l-6.16-6.052a1.4 1.4 0 0 1 .176-2.167l.03-.02a17.688 17.688 0 0 1 6.68-2.727c.425-.075.863.04 1.193.312Z"/></g><path d="M18.447 25.79a1.4 1.4 0 0 1 .023 1.989l-6.187 6.08a1.455 1.455 0 0 1-2.178-.2l-.021-.03a17.053 17.053 0 0 1-2.775-6.563c-.076-.418.04-.848.318-1.172.27-.316.665-.501 1.083-.51l.038-.001h8.667c.385-.006.757.141 1.032.408ZM12.283 14.046l6.16 6.052c.277.267.432.632.432 1.013 0 .381-.158.746-.436 1.011-.27.257-.629.4-1.003.4H8.731a1.467 1.467 0 0 1-1.12-.51 1.414 1.414 0 0 1-.319-1.173 17.053 17.053 0 0 1 2.727-6.471l.065-.093a1.455 1.455 0 0 1 2.2-.229Z" fill="#BAE249"/></g><rect fill="#141F25" x="29" width="5" height="48" rx=".577"/></g></svg>