<svg width="48" height="48" viewBox="0 0 48 48" xmlns="http://www.w3.org/2000/svg"><title>Shape</title><defs><linearGradient x1="0%" y1="0%" x2="100%" y2="100%" id="a"><stop stop-color="#FC0A7E" offset="0%"/><stop stop-color="#FFAC45" offset="100%"/></linearGradient></defs><path d="M42.63 0C45.594 0 48 2.421 48 5.408v16.729c0 2.987-2.405 5.408-5.37 5.408H19.408c-.508 0-.972.289-1.2.746L9.84 45.07A5.274 5.274 0 0 1 5.242 48L5.125 48C2.295 48 0 45.69 0 42.839V5.409C0 2.42 2.405 0 5.37 0h37.26Zm-3.026 7.775H8.396a.676.676 0 0 0-.676.676v22.168a.338.338 0 0 0 .638.156l4.356-8.36a4.695 4.695 0 0 1 4.013-2.47l.115-.001h22.762a.676.676 0 0 0 .676-.676V8.45a.676.676 0 0 0-.676-.676Z" fill="url(#a)" fill-rule="evenodd"/></svg>