<svg width="48" height="48" viewBox="0 0 48 48" xmlns="http://www.w3.org/2000/svg"><title>Combined-Shape</title><path d="M48 24.29c0 4.655-.998 8.78-2.995 12.372-1.996 3.593-4.81 6.38-8.443 8.363C32.929 47.008 28.756 48 24.042 48c-4.77 0-8.97-.992-12.604-2.975-3.632-1.983-6.447-4.77-8.443-8.363C.998 33.069 0 28.945 0 24.289c0-.351.006-.7.017-1.045C.009 23.224.004 15.476 0 0h47.747c.14 0 .253.115.253.263v22.886c-.006.44 0 .788 0 1.14Zm-28.231 4.926a6.758 6.758 0 0 1-.707-.694c-1.27-1.44-1.906-3.318-1.906-5.636s.635-4.197 1.906-5.636c1.27-1.44 2.922-2.16 4.955-2.16 1.999 0 3.634.72 4.904 2.16 1.271 1.44 1.906 3.318 1.906 5.636s-.635 4.196-1.906 5.636c-.168.19-.342.369-.523.534l5.079 5.21a12.758 12.758 0 0 0 3.347-3.927c1.22-2.194 1.83-4.714 1.83-7.559 0-2.88-.61-5.408-1.83-7.585-1.22-2.177-2.939-3.863-5.158-5.057-2.22-1.194-4.769-1.79-7.65-1.79-2.913 0-5.48.596-7.699 1.79-2.22 1.194-3.939 2.88-5.158 5.057-1.22 2.177-1.83 4.706-1.83 7.585 0 2.845.61 5.365 1.83 7.56a12.747 12.747 0 0 0 3.542 4.074l5.068-5.198Z" fill="#269EFF" fill-rule="nonzero"/></svg>